HIERARCHY
ROOT Hips
{
  OFFSET -5.451 -12.022 -290.002
  CHANNELS 6 Xposition Yposition Zposition Zrotation Xrotation Yrotation
  JOINT LeftUpLeg
  {
    OFFSET 7.410 -7.662 2.970
    CHANNELS 6 Xposition Yposition Zposition Zrotation Xrotation Yrotation
    JOINT LeftLeg
    {
      OFFSET -0.000 -49.525 0.000
      CHANNELS 6 Xposition Yposition Zposition Zrotation Xrotation Yrotation
      JOINT LeftFoot
      {
        OFFSET 0.000 -40.417 -0.000
        CHANNELS 6 Xposition Yposition Zposition Zrotation Xrotation Yrotation
        End Site
        {
          OFFSET -0.000 -7.279 4.203
        }
      }
    }
  }
  JOINT RightUpLeg
  {
    OFFSET -7.747 -6.301 2.088
    CHANNELS 6 Xposition Yposition Zposition Zrotation Xrotation Yrotation
    JOINT RightLeg
    {
      OFFSET -0.000 -48.231 0.000
      CHANNELS 6 Xposition Yposition Zposition Zrotation Xrotation Yrotation
      JOINT RightFoot
      {
        OFFSET 0.000 -39.816 -0.000
        CHANNELS 6 Xposition Yposition Zposition Zrotation Xrotation Yrotation
        End Site
        {
          OFFSET -0.000 -7.553 4.361
        }
      }
    }
  }
  JOINT Spine
  {
    OFFSET 0.000 5.415 -5.415
    CHANNELS 6 Xposition Yposition Zposition Zrotation Xrotation Yrotation
    JOINT LeftShoulder
    {
      OFFSET -0.000 35.646 0.000
      CHANNELS 6 Xposition Yposition Zposition Zrotation Xrotation Yrotation
      JOINT LeftArm
      {
        OFFSET 20.763 0.000 -0.000
        CHANNELS 6 Xposition Yposition Zposition Zrotation Xrotation Yrotation
        JOINT LeftForeArm
        {
          OFFSET 25.456 0.000 0.000
          CHANNELS 6 Xposition Yposition Zposition Zrotation Xrotation Yrotation
          JOINT LeftHand
          {
            OFFSET 24.494 0.000 -0.000
            CHANNELS 6 Xposition Yposition Zposition Zrotation Xrotation Yrotation
            JOINT LeftHandThumb1
            {
            OFFSET 4.970 -0.620 3.390
            CHANNELS 6 Xposition Yposition Zposition Zrotation Xrotation Yrotation
              JOINT LeftHandThumb2
              {
              OFFSET 2.150 -0.000 0.000
              CHANNELS 6 Xposition Yposition Zposition Zrotation Xrotation Yrotation
                JOINT LeftHandThumb3
                {
                OFFSET 2.200 -0.000 0.000
                CHANNELS 6 Xposition Yposition Zposition Zrotation Xrotation Yrotation
                  JOINT LeftHandThumb4
                  {
                  OFFSET 1.700 -0.000 0.000
                  CHANNELS 6 Xposition Yposition Zposition Zrotation Xrotation Yrotation
                  }
                }
              }
            }
            JOINT LeftHandIndex1
            {
            OFFSET 8.730 0.680 2.070
            CHANNELS 6 Xposition Yposition Zposition Zrotation Xrotation Yrotation
              JOINT LeftHandIndex2
              {
              OFFSET 2.670 -0.000 0.000
              CHANNELS 6 Xposition Yposition Zposition Zrotation Xrotation Yrotation
                JOINT LeftHandIndex3
                {
                OFFSET 2.130 -0.000 0.000
                CHANNELS 6 Xposition Yposition Zposition Zrotation Xrotation Yrotation
                  JOINT LeftHandIndex4
                  {
                  OFFSET 1.800 -0.000 0.000
                  CHANNELS 6 Xposition Yposition Zposition Zrotation Xrotation Yrotation
                  }
                }
              }
            }
            JOINT LeftHandMiddle1
            {
            OFFSET 9.220 0.670 0.550
            CHANNELS 6 Xposition Yposition Zposition Zrotation Xrotation Yrotation
              JOINT LeftHandMiddle2
              {
              OFFSET 2.660 -0.000 0.000
              CHANNELS 6 Xposition Yposition Zposition Zrotation Xrotation Yrotation
                JOINT LeftHandMiddle3
                {
                OFFSET 2.280 -0.000 0.000
                CHANNELS 6 Xposition Yposition Zposition Zrotation Xrotation Yrotation
                  JOINT LeftHandMiddle4
                  {
                  OFFSET 1.500 -0.000 0.000
                  CHANNELS 6 Xposition Yposition Zposition Zrotation Xrotation Yrotation
                  }
                }
              }
            }
            JOINT LeftHandRing1
            {
            OFFSET 9.250 0.670 -1.130
            CHANNELS 6 Xposition Yposition Zposition Zrotation Xrotation Yrotation
              JOINT LeftHandRing2
              {
              OFFSET 2.470 -0.000 0.000
              CHANNELS 6 Xposition Yposition Zposition Zrotation Xrotation Yrotation
                JOINT LeftHandRing3
                {
                OFFSET 2.210 -0.000 0.000
                CHANNELS 6 Xposition Yposition Zposition Zrotation Xrotation Yrotation
                  JOINT LeftHandRing4
                  {
                  OFFSET 1.800 -0.000 0.000
                  CHANNELS 6 Xposition Yposition Zposition Zrotation Xrotation Yrotation
                  }
                }
              }
            }
            JOINT LeftHandPinky1
            {
            OFFSET 9.350 0.660 -2.720
            CHANNELS 6 Xposition Yposition Zposition Zrotation Xrotation Yrotation
              JOINT LeftHandPinky2
              {
              OFFSET 1.630 -0.000 0.000
              CHANNELS 6 Xposition Yposition Zposition Zrotation Xrotation Yrotation
                JOINT LeftHandPinky3
                {
                OFFSET 1.710 -0.000 0.000
                CHANNELS 6 Xposition Yposition Zposition Zrotation Xrotation Yrotation
                  JOINT LeftHandPinky4
                  {
                  OFFSET 1.800 -0.000 0.000
                  CHANNELS 6 Xposition Yposition Zposition Zrotation Xrotation Yrotation
                  }
                }
              }
            }
          }
        }
      }
    }
    JOINT RightShoulder
    {
      OFFSET -0.000 35.646 0.000
      CHANNELS 6 Xposition Yposition Zposition Zrotation Xrotation Yrotation
      JOINT RightArm
      {
        OFFSET -18.346 0.000 -0.000
        CHANNELS 6 Xposition Yposition Zposition Zrotation Xrotation Yrotation
        JOINT RightForeArm
        {
          OFFSET -26.515 0.000 0.000
          CHANNELS 6 Xposition Yposition Zposition Zrotation Xrotation Yrotation
          JOINT RightHand
          {
            OFFSET -25.338 0.000 -0.000
            CHANNELS 6 Xposition Yposition Zposition Zrotation Xrotation Yrotation
            JOINT RightHandThumb1
            {
            OFFSET -4.970 -0.620 3.390
            CHANNELS 6 Xposition Yposition Zposition Zrotation Xrotation Yrotation
              JOINT RightHandThumb2
              {
              OFFSET -2.150 0.000 0.000
              CHANNELS 6 Xposition Yposition Zposition Zrotation Xrotation Yrotation
                JOINT RightHandThumb3
                {
                OFFSET -2.200 0.000 0.000
                CHANNELS 6 Xposition Yposition Zposition Zrotation Xrotation Yrotation
                  JOINT RightHandThumb4
                  {
                  OFFSET -1.700 0.000 0.000
                  CHANNELS 6 Xposition Yposition Zposition Zrotation Xrotation Yrotation
                  }
                }
              }
            }
            JOINT RightHandIndex1
            {
            OFFSET -8.730 0.680 2.070
            CHANNELS 6 Xposition Yposition Zposition Zrotation Xrotation Yrotation
              JOINT RightHandIndex2
              {
              OFFSET -2.670 0.000 0.000
              CHANNELS 6 Xposition Yposition Zposition Zrotation Xrotation Yrotation
                JOINT RightHandIndex3
                {
                OFFSET -2.130 0.000 0.000
                CHANNELS 6 Xposition Yposition Zposition Zrotation Xrotation Yrotation
                  JOINT RightHandIndex4
                  {
                  OFFSET -1.800 0.000 0.000
                  CHANNELS 6 Xposition Yposition Zposition Zrotation Xrotation Yrotation
                  }
                }
              }
            }
            JOINT RightHandMiddle1
            {
            OFFSET -9.220 0.670 0.550
            CHANNELS 6 Xposition Yposition Zposition Zrotation Xrotation Yrotation
              JOINT RightHandMiddle2
              {
              OFFSET -2.660 0.000 0.000
              CHANNELS 6 Xposition Yposition Zposition Zrotation Xrotation Yrotation
                JOINT RightHandMiddle3
                {
                OFFSET -2.280 0.000 0.000
                CHANNELS 6 Xposition Yposition Zposition Zrotation Xrotation Yrotation
                  JOINT RightHandMiddle4
                  {
                  OFFSET -1.500 0.000 0.000
                  CHANNELS 6 Xposition Yposition Zposition Zrotation Xrotation Yrotation
                  }
                }
              }
            }
            JOINT RightHandRing1
            {
            OFFSET -9.250 0.670 -1.130
            CHANNELS 6 Xposition Yposition Zposition Zrotation Xrotation Yrotation
              JOINT RightHandRing2
              {
              OFFSET -2.470 0.000 0.000
              CHANNELS 6 Xposition Yposition Zposition Zrotation Xrotation Yrotation
                JOINT RightHandRing3
                {
                OFFSET -2.210 0.000 0.000
                CHANNELS 6 Xposition Yposition Zposition Zrotation Xrotation Yrotation
                  JOINT RightHandRing4
                  {
                  OFFSET -1.800 0.000 0.000
                  CHANNELS 6 Xposition Yposition Zposition Zrotation Xrotation Yrotation
                  }
                }
              }
            }
            JOINT RightHandPinky1
            {
            OFFSET -9.350 0.660 -2.720
            CHANNELS 6 Xposition Yposition Zposition Zrotation Xrotation Yrotation
              JOINT RightHandPinky2
              {
              OFFSET -1.630 0.000 0.000
              CHANNELS 6 Xposition Yposition Zposition Zrotation Xrotation Yrotation
                JOINT RightHandPinky3
                {
                OFFSET -1.710 0.000 0.000
                CHANNELS 6 Xposition Yposition Zposition Zrotation Xrotation Yrotation
                  JOINT RightHandPinky4
                  {
                  OFFSET -1.800 0.000 0.000
                  CHANNELS 6 Xposition Yposition Zposition Zrotation Xrotation Yrotation
                  }
                }
              }
            }
          }
        }
      }
    }
    JOINT Neck
    {
      OFFSET -0.000 35.646 0.000
      CHANNELS 6 Xposition Yposition Zposition Zrotation Xrotation Yrotation
      JOINT Head
      {
        OFFSET -0.000 19.669 -0.000
        CHANNELS 6 Xposition Yposition Zposition Zrotation Xrotation Yrotation
        End Site
        {
          OFFSET -0.000 0.079 -0.000
        }
      }
    }
  }
}
MOTION
Frames:	6
Frame Time:	0.0333333
-5.61382 -10.5656 -300.776 -2.87676 0.999271 19.6366 7.6649 -8.64718 1.39732 3.84547 -2.49962 3.34526 0 -52.296 -2.38419e-05 -6.22562 2.40685 0.262479 2.38419e-05 -41.4533 0 8.31523 -3.87333 5.41413 -8.21096 -6.97076 2.19803 -7.81266 -9.97552 2.52076 2.38419e-05 -48.9063 -2.38419e-05 6.07945 5.31002 -0.56474 5.96046e-06 -40.888 -2.38419e-05 5.35148 1.49226 3.02405 -5.96046e-06 6.0092 -6.00915 -1.13898 -2.89347 0.974971 1.19209e-05 35.6457 2.38419e-05 -26.3711 1.19528e-05 -6.91772 21.294 0 -7.15256e-05 -53.1551 29.9528 -14.7285 26.184 -5.96046e-06 2.38419e-05 -1.27574e-06 -5.97642e-06 -28.2752 24.2691 1.78814e-05 2.38419e-05 -9.24807 0.0797886 -2.8631 0.0062 0.0497 0.0339 0 0 0 0 0.0215 0 0 0 0 0 0.022 0 0 0 0 0 0.017 0 0 0 0 -0.0068 0.0873 0.0207 0 0 0 0 0.0267 0 0 0 0 0 0.0213 0 0 0 0 0 0.018 0 0 0 0 -0.0067 0.0922 0.0055 0 0 0 0 0.0266 0 0 0 0 0 0.0228 0 0 0 0 0 0.015 0 0 0 0 -0.0067 0.0925 -0.0113 0 0 0 0 0.0247 0 0 0 0 0 0.0221 0 0 0 0 0 0.018 0 0 0 0 -0.0066 0.0935 -0.0272 0 0 0 0 0.0163 0 0 0 0 0 0.0171 0 0 0 0 0 0.018 0 0 0 0 1.19209e-05 35.6457 2.38419e-05 33.9827 -5.97642e-06 7.57504 -19.4557 -8.9407e-06 -2.38419e-05 41.191 27.1217 1.98766 -26.4313 -4.76837e-05 5.96046e-05 3.83958e-06 -8.53774e-06 34.7241 -26.0752 2.38419e-05 -1.19209e-05 2.36267 0.0834816 4.22176 -0.0062 0.0497 0.0339 0 0 0 0 0.0215 0 0 0 0 0 0.022 0 0 0 0 0 0.017 0 0 0 0 0.0068 0.0873 0.0207 0 0 0 0 0.0267 0 0 0 0 0 0.0213 0 0 0 0 0 0.018 0 0 0 0 0.0067 0.0922 0.0055 0 0 0 0 0.0266 0 0 0 0 0 0.0228 0 0 0 0 0 0.015 0 0 0 0 0.0067 0.0925 -0.0113 0 0 0 0 0.0247 0 0 0 0 0 0.0221 0 0 0 0 0 0.018 0 0 0 0 0.0066 0.0935 -0.0272 0 0 0 0 0.0163 0 0 0 0 0 0.0171 0 0 0 0 0 0.018 0 0 0 0 1.19209e-05 35.6457 2.38419e-05 -0.288652 11.4233 0.0571638 0 19.5621 2.38419e-05 1.00318e-05 -1.19528e-05 0 
-5.76097 -10.6021 -300.62 -3.04451 1.63498 19.4671 7.64761 -8.64315 1.35238 3.82486 -3.27709 3.83366 -2.38419e-05 -52.2795 -2.38419e-05 -6.47934 2.58334 0.293282 1.19209e-05 -41.4726 -9.53674e-05 8.56433 -3.59321 5.51842 -8.22939 -6.96989 2.25196 -7.80301 -10.4959 2.84794 -1.19209e-05 -48.9361 -2.38419e-05 6.23903 5.08705 -0.555387 2.38419e-05 -40.7721 2.38419e-05 5.01853 1.80228 2.81506 -5.96046e-06 6.00863 -6.00863 -1.30237 -2.45702 1.11155 -2.38419e-05 35.6457 -4.76837e-05 -26.3406 9.39151e-06 -7.05071 21.2035 0 -7.15256e-05 -53.802 28.5817 -14.5681 26.2021 1.78814e-05 -7.15256e-05 1.94966e-06 1.70755e-06 -29.5536 24.2955 -1.19209e-05 2.38419e-05 -9.15491 0.0106941 -1.48288 0.0062 0.0497 0.0339 0 0 0 0 0.0215 0 0 0 0 0 0.022 0 0 0 0 0 0.017 0 0 0 0 -0.0068 0.0873 0.0207 0 0 0 0 0.0267 0 0 0 0 0 0.0213 0 0 0 0 0 0.018 0 0 0 0 -0.0067 0.0922 0.0055 0 0 0 0 0.0266 0 0 0 0 0 0.0228 0 0 0 0 0 0.015 0 0 0 0 -0.0067 0.0925 -0.0113 0 0 0 0 0.0247 0 0 0 0 0 0.0221 0 0 0 0 0 0.018 0 0 0 0 -0.0066 0.0935 -0.0272 0 0 0 0 0.0163 0 0 0 0 0 0.0171 0 0 0 0 0 0.018 0 0 0 0 -2.38419e-05 35.6457 -4.76837e-05 34.2779 8.53774e-07 7.65757 -19.5319 8.9407e-06 0 40.1217 26.6909 2.70394 -26.3571 -2.38419e-05 -1.19209e-05 -3.21804e-07 1.19528e-05 36.3777 -25.9275 7.15256e-05 0 0.863319 0.0381283 4.9754 -0.0062 0.0497 0.0339 0 0 0 0 0.0215 0 0 0 0 0 0.022 0 0 0 0 0 0.017 0 0 0 0 0.0068 0.0873 0.0207 0 0 0 0 0.0267 0 0 0 0 0 0.0213 0 0 0 0 0 0.018 0 0 0 0 0.0067 0.0922 0.0055 0 0 0 0 0.0266 0 0 0 0 0 0.0228 0 0 0 0 0 0.015 0 0 0 0 0.0067 0.0925 -0.0113 0 0 0 0 0.0247 0 0 0 0 0 0.0221 0 0 0 0 0 0.018 0 0 0 0 0.0066 0.0935 -0.0272 0 0 0 0 0.0163 0 0 0 0 0 0.0171 0 0 0 0 0 0.018 0 0 0 0 -2.38419e-05 35.6457 -4.76837e-05 -0.320331 9.04804 0.0503745 -1.19209e-05 19.4646 2.38419e-05 1.04587e-05 -9.39151e-06 -1.70755e-06 
-5.88805 -11.0371 -300.514 -3.30556 3.45488 19.073 7.57512 -8.63411 1.34149 3.49911 -5.59481 4.52346 1.19209e-05 -52.0208 7.15256e-05 -6.76982 3.23403 0.383697 3.57628e-05 -41.4172 -7.15256e-05 8.98785 -3.06505 5.6838 -8.23013 -6.97469 2.33076 -8.18036 -13.1023 2.9776 0 -48.9379 0 6.54491 6.47096 -0.740795 5.96046e-06 -40.3293 2.38419e-05 4.65133 2.15056 2.58026 1.19209e-05 5.98739 -5.98738 -1.72066 -2.58692 1.48359 -2.38419e-05 35.6457 2.38419e-05 -26.2487 1.19528e-05 -7.87008 21.0515 -5.96046e-06 -2.38419e-05 -54.3499 26.808 -14.8197 26.3444 0 0 2.49186e-06 8.53773e-07 -30.677 25.1026 5.96046e-06 -2.38419e-05 -9.3428 -0.124391 1.66226 0.0062 0.0497 0.0339 0 0 0 0 0.0215 0 0 0 0 0 0.022 0 0 0 0 0 0.017 0 0 0 0 -0.0068 0.0873 0.0207 0 0 0 0 0.0267 0 0 0 0 0 0.0213 0 0 0 0 0 0.018 0 0 0 0 -0.0067 0.0922 0.0055 0 0 0 0 0.0266 0 0 0 0 0 0.0228 0 0 0 0 0 0.015 0 0 0 0 -0.0067 0.0925 -0.0113 0 0 0 0 0.0247 0 0 0 0 0 0.0221 0 0 0 0 0 0.018 0 0 0 0 -0.0066 0.0935 -0.0272 0 0 0 0 0.0163 0 0 0 0 0 0.0171 0 0 0 0 0 0.018 0 0 0 0 -2.38419e-05 35.6457 2.38419e-05 35.2143 -8.53773e-07 8.36798 -19.807 -2.98023e-06 0 38.0159 24.6548 3.39582 -25.9192 4.76837e-05 -2.38419e-05 -5.56847e-06 6.83019e-06 39.1895 -25.7522 2.38419e-05 0 -0.942027 -0.0182364 5.80397 -0.0062 0.0497 0.0339 0 0 0 0 0.0215 0 0 0 0 0 0.022 0 0 0 0 0 0.017 0 0 0 0 0.0068 0.0873 0.0207 0 0 0 0 0.0267 0 0 0 0 0 0.0213 0 0 0 0 0 0.018 0 0 0 0 0.0067 0.0922 0.0055 0 0 0 0 0.0266 0 0 0 0 0 0.0228 0 0 0 0 0 0.015 0 0 0 0 0.0067 0.0925 -0.0113 0 0 0 0 0.0247 0 0 0 0 0 0.0221 0 0 0 0 0 0.018 0 0 0 0 0.0066 0.0935 -0.0272 0 0 0 0 0.0163 0 0 0 0 0 0.0171 0 0 0 0 0 0.018 0 0 0 0 -2.38419e-05 35.6457 2.38419e-05 -0.371853 6.65614 0.0431159 3.57628e-05 19.324 -7.15256e-05 1.02453e-05 -1.02453e-05 -3.41509e-06 
-5.88805 -11.0371 -300.514 -3.30556 3.45488 19.073 7.57512 -8.63411 1.34149 3.49911 -5.59481 4.52346 1.19209e-05 -52.0208 7.15256e-05 -6.76982 3.23403 0.383697 3.57628e-05 -41.4172 -7.15256e-05 8.98785 -3.06505 5.6838 -8.23013 -6.97469 2.33076 -8.18036 -13.1023 2.9776 0 -48.9379 0 6.54491 6.47096 -0.740795 5.96046e-06 -40.3293 2.38419e-05 4.65133 2.15056 2.58026 1.19209e-05 5.98739 -5.98738 -1.72066 -2.58692 1.48359 -2.38419e-05 35.6457 2.38419e-05 -26.2487 1.19528e-05 -7.87008 21.0515 -5.96046e-06 -2.38419e-05 -54.3499 26.808 -14.8197 26.3444 0 0 2.49186e-06 8.53773e-07 -30.677 25.1026 5.96046e-06 -2.38419e-05 -9.3428 -0.124391 1.66226 0.0062 0.0497 0.0339 0 0 0 0 0.0215 0 0 0 0 0 0.022 0 0 0 0 0 0.017 0 0 0 0 -0.0068 0.0873 0.0207 0 0 0 0 0.0267 0 0 0 0 0 0.0213 0 0 0 0 0 0.018 0 0 0 0 -0.0067 0.0922 0.0055 0 0 0 0 0.0266 0 0 0 0 0 0.0228 0 0 0 0 0 0.015 0 0 0 0 -0.0067 0.0925 -0.0113 0 0 0 0 0.0247 0 0 0 0 0 0.0221 0 0 0 0 0 0.018 0 0 0 0 -0.0066 0.0935 -0.0272 0 0 0 0 0.0163 0 0 0 0 0 0.0171 0 0 0 0 0 0.018 0 0 0 0 -2.38419e-05 35.6457 2.38419e-05 35.2143 -8.53773e-07 8.36798 -19.807 -2.98023e-06 0 38.0159 24.6548 3.39582 -25.9192 4.76837e-05 -2.38419e-05 -5.56847e-06 6.83019e-06 39.1895 -25.7522 2.38419e-05 0 -0.942027 -0.0182364 5.80397 -0.0062 0.0497 0.0339 0 0 0 0 0.0215 0 0 0 0 0 0.022 0 0 0 0 0 0.017 0 0 0 0 0.0068 0.0873 0.0207 0 0 0 0 0.0267 0 0 0 0 0 0.0213 0 0 0 0 0 0.018 0 0 0 0 0.0067 0.0922 0.0055 0 0 0 0 0.0266 0 0 0 0 0 0.0228 0 0 0 0 0 0.015 0 0 0 0 0.0067 0.0925 -0.0113 0 0 0 0 0.0247 0 0 0 0 0 0.0221 0 0 0 0 0 0.018 0 0 0 0 0.0066 0.0935 -0.0272 0 0 0 0 0.0163 0 0 0 0 0 0.0171 0 0 0 0 0 0.018 0 0 0 0 -2.38419e-05 35.6457 2.38419e-05 -0.371853 6.65614 0.0431159 3.57628e-05 19.324 -7.15256e-05 1.02453e-05 -1.02453e-05 -3.41509e-06 
-5.81297 -11.702 -300.537 -3.39814 5.32321 18.2796 7.45268 -8.58786 1.36549 3.12264 -7.98785 5.0981 -1.19209e-05 -51.8049 0 -7.13179 4.04511 0.50569 -4.76837e-05 -41.1417 -2.38419e-05 9.32522 -2.42273 5.76947 -8.21826 -6.91672 2.41308 -8.81399 -16.296 2.89128 -2.38419e-05 -48.7633 7.15256e-05 6.74643 8.53083 -1.00532 5.96046e-06 -39.9329 -4.76837e-05 4.37555 0.106726 2.56271 2.98023e-05 5.90976 -5.9098 -2.51582 -3.00406 2.38868 -3.57628e-05 35.6457 0 -25.2985 1.45142e-05 -7.74873 20.4927 5.96046e-06 2.38419e-05 -53.7448 27.4966 -17.462 26.8686 -5.96046e-06 -9.53674e-05 8.86905e-06 6.83019e-06 -29.9826 26.1011 5.96046e-06 9.53674e-05 -9.88965 -0.209792 4.23516 0.0062 0.0497 0.0339 0 0 0 0 0.0215 0 0 0 0 0 0.022 0 0 0 0 0 0.017 0 0 0 0 -0.0068 0.0873 0.0207 0 0 0 0 0.0267 0 0 0 0 0 0.0213 0 0 0 0 0 0.018 0 0 0 0 -0.0067 0.0922 0.0055 0 0 0 0 0.0266 0 0 0 0 0 0.0228 0 0 0 0 0 0.015 0 0 0 0 -0.0067 0.0925 -0.0113 0 0 0 0 0.0247 0 0 0 0 0 0.0221 0 0 0 0 0 0.018 0 0 0 0 -0.0066 0.0935 -0.0272 0 0 0 0 0.0163 0 0 0 0 0 0.0171 0 0 0 0 0 0.018 0 0 0 0 -3.57628e-05 35.6457 0 36.1747 -8.53774e-07 7.81181 -20.3282 1.19209e-05 -2.38419e-05 35.3575 24.3933 5.70299 -25.4097 2.38419e-05 1.19209e-05 1.04296e-05 -1.70755e-06 40.4402 -25.0867 -2.38419e-05 0 -2.65389 -0.0567745 7.65352 -0.0062 0.0497 0.0339 0 0 0 0 0.0215 0 0 0 0 0 0.022 0 0 0 0 0 0.017 0 0 0 0 0.0068 0.0873 0.0207 0 0 0 0 0.0267 0 0 0 0 0 0.0213 0 0 0 0 0 0.018 0 0 0 0 0.0067 0.0922 0.0055 0 0 0 0 0.0266 0 0 0 0 0 0.0228 0 0 0 0 0 0.015 0 0 0 0 0.0067 0.0925 -0.0113 0 0 0 0 0.0247 0 0 0 0 0 0.0221 0 0 0 0 0 0.018 0 0 0 0 0.0066 0.0935 -0.0272 0 0 0 0 0.0163 0 0 0 0 0 0.0171 0 0 0 0 0 0.018 0 0 0 0 -3.57628e-05 35.6457 0 0.267484 4.581 -0.0213596 -1.19209e-05 18.8929 -4.76837e-05 1.04587e-05 -8.96462e-06 5.12264e-06 
-5.68052 -13.5845 -300.566 -4.20389 8.60153 17.0791 7.46738 -8.66081 1.49205 3.31228 -12.4901 6.43349 -1.19209e-05 -50.3195 -4.76837e-05 -7.77405 5.85843 0.798355 0 -40.8314 0 9.66274 -1.35796 5.78647 -8.20937 -6.68288 2.64833 -9.33404 -21.7007 3.10254 -5.96046e-06 -47.7326 -4.76837e-05 7.24526 11.3173 -1.42916 0 -39.4849 0 3.8149 -6.40021 2.52505 1.78814e-05 5.83301 -5.83298 -2.64285 -4.96006 1.99802 5.96046e-06 35.6457 7.15256e-05 -27.0839 1.23797e-05 -9.1193 20.4062 1.19209e-05 -2.38419e-05 -52.335 23.9285 -16.8391 26.1687 1.19209e-05 4.76837e-05 4.4142e-06 -4.26887e-06 -30.7573 27.1869 -2.38419e-05 0 -10.3442 -0.306831 7.97414 0.0062 0.0497 0.0339 0 0 0 0 0.0215 0 0 0 0 0 0.022 0 0 0 0 0 0.017 0 0 0 0 -0.0068 0.0873 0.0207 0 0 0 0 0.0267 0 0 0 0 0 0.0213 0 0 0 0 0 0.018 0 0 0 0 -0.0067 0.0922 0.0055 0 0 0 0 0.0266 0 0 0 0 0 0.0228 0 0 0 0 0 0.015 0 0 0 0 -0.0067 0.0925 -0.0113 0 0 0 0 0.0247 0 0 0 0 0 0.0221 0 0 0 0 0 0.018 0 0 0 0 -0.0066 0.0935 -0.0272 0 0 0 0 0.0163 0 0 0 0 0 0.0171 0 0 0 0 0 0.018 0 0 0 0 5.96046e-06 35.6457 7.15256e-05 36.9878 -1.70755e-06 8.96133 -20.7629 -2.98023e-06 -7.15256e-05 32.3924 24.2009 7.597 -24.5609 -4.76837e-05 5.96046e-05 -1.92995e-05 8.53774e-06 42.2725 -24.1786 9.53674e-05 -1.19209e-05 -5.47742 -0.138123 11.8965 -0.0062 0.0497 0.0339 0 0 0 0 0.0215 0 0 0 0 0 0.022 0 0 0 0 0 0.017 0 0 0 0 0.0068 0.0873 0.0207 0 0 0 0 0.0267 0 0 0 0 0 0.0213 0 0 0 0 0 0.018 0 0 0 0 0.0067 0.0922 0.0055 0 0 0 0 0.0266 0 0 0 0 0 0.0228 0 0 0 0 0 0.015 0 0 0 0 0.0067 0.0925 -0.0113 0 0 0 0 0.0247 0 0 0 0 0 0.0221 0 0 0 0 0 0.018 0 0 0 0 0.0066 0.0935 -0.0272 0 0 0 0 0.0163 0 0 0 0 0 0.0171 0 0 0 0 0 0.018 0 0 0 0 5.96046e-06 35.6457 7.15256e-05 0.68332 2.92419 -0.0348657 0 18.8629 -2.38419e-05 8.96462e-06 -8.96462e-06 -1.70755e-06 
